<?xml version="1.0" encoding="utf-8"?>
<!-- Generator: Adobe Illustrator 19.1.0, SVG Export Plug-In . SVG Version: 6.00 Build 0)  -->
<svg version="1.1" id="Layer_1" xmlns="http://www.w3.org/2000/svg" xmlns:xlink="http://www.w3.org/1999/xlink" x="0px" y="0px"
	 viewBox="0 0 140 140" style="enable-background:new 0 0 140 140;" xml:space="preserve">
<style type="text/css">
	.st0{fill:#6FBE4A;}
</style>
<g>
	<path class="st0" d="M69.2,89.3c-1.2,0-2.3-0.4-3.2-1.2c-0.3-0.2-6.7-5.7-11.7-13.7c-1.5-2.3-0.7-5.4,1.6-6.9s5.4-0.7,6.9,1.6
		c1.9,3.1,4.1,5.7,5.9,7.7c5.9-7.8,18-23.8,23.6-33.2c1.4-2.3,4.5-3.1,6.8-1.7c2.4,1.4,3.1,4.5,1.7,6.8C92.9,62,74,86.4,73.2,87.4
		c-0.8,1.1-2.1,1.8-3.4,1.9C69.6,89.3,69.4,89.3,69.2,89.3z"/>
</g>
<g>
	<path class="st0" d="M71.2,102.7c-17.4,0-31.5-14.1-31.5-31.5s14.1-31.5,31.5-31.5s31.5,14.1,31.5,31.5S88.6,102.7,71.2,102.7z
		 M71.2,42.7c-15.7,0-28.5,12.8-28.5,28.5s12.8,28.5,28.5,28.5s28.5-12.8,28.5-28.5S86.9,42.7,71.2,42.7z"/>
</g>
</svg>
