<?xml version="1.0" encoding="utf-8"?>
<!-- Generator: Adobe Illustrator 19.2.1, SVG Export Plug-In . SVG Version: 6.00 Build 0)  -->
<svg version="1.1" id="FOX" xmlns="http://www.w3.org/2000/svg" xmlns:xlink="http://www.w3.org/1999/xlink" x="0px" y="0px"
	 viewBox="0 0 600 325" style="enable-background:new 0 0 600 325;" xml:space="preserve">
<style type="text/css">
	.st0{fill:#3E0000;}
	.st1{fill:url(#SVGID_1_);}
	.st2{fill:url(#SVGID_2_);}
	.st3{fill:url(#SVGID_3_);}
	.st4{fill:url(#SVGID_4_);}
	.st5{fill:url(#SVGID_5_);}
	.st6{fill:#FFFFFF;}
	.st7{fill:url(#SVGID_6_);}
	.st8{fill:url(#SVGID_7_);}
	.st9{fill:url(#SVGID_8_);}
	.st10{fill:url(#SVGID_9_);}
	.st11{fill:url(#SVGID_10_);}
	.st12{fill:url(#SVGID_11_);}
	.st13{fill:url(#SVGID_12_);}
	.st14{fill:url(#SVGID_13_);}
	.st15{fill:url(#SVGID_14_);}
	.st16{fill:url(#SVGID_15_);}
	.st17{fill:url(#SVGID_16_);}
	.st18{fill:#FFFFFF;stroke:#FFFFFF;stroke-width:5.000000e-02;stroke-linecap:round;stroke-linejoin:round;}
	.st19{fill:url(#SVGID_17_);}
	.st20{fill:url(#SVGID_18_);}
	.st21{fill:#6A3931;}
	.st22{fill:url(#SVGID_19_);}
	.st23{fill:url(#SVGID_20_);}
	.st24{fill:url(#SVGID_21_);}
	.st25{fill:url(#SVGID_22_);}
	.st26{fill:url(#SVGID_23_);}
	.st27{fill:url(#SVGID_24_);}
	.st28{fill:url(#SVGID_25_);}
	.st29{fill:url(#SVGID_26_);}
	.st30{fill:url(#SVGID_27_);}
	.st31{fill:url(#SVGID_28_);}
	.st32{fill:url(#SVGID_29_);}
	.st33{fill:url(#SVGID_30_);}
	.st34{fill:url(#SVGID_31_);}
	.st35{fill:url(#SVGID_32_);}
	.st36{fill:url(#SVGID_33_);}
	.st37{fill:url(#SVGID_34_);}
	.st38{fill:url(#SVGID_35_);}
	.st39{fill:url(#SVGID_36_);}
	.st40{fill:url(#SVGID_37_);}
	.st41{fill:url(#SVGID_38_);}
	.st42{fill:url(#SVGID_39_);}
	.st43{fill:url(#SVGID_40_);}
	.st44{fill:url(#SVGID_41_);}
</style>
<g>
	<path class="st0" d="M121,79.8c-1.9,1.5-6.4,9.3-5.7,12.6c0.3,1.4,4,1,6.9-1c2.2-1.6,2.5-4.1,5.7-7.8c11.9-13.5,28.3-18.4,32-20
		c4.1-1.8,3.8-3.3,3.8-3.3S146.9,59.5,121,79.8z"/>
	<path class="st0" d="M223.1,52.3c0,0-1.2,0.6-1.1,1.6c0.2,2.8,0.5,3.2,0.8,10.9c0.2,6.2,1.9,28.3-3.4,33.6
		c-1.4,1.4-2.1,4.9-1.5,5.9c1.4,2.2,4.9,1.7,6.5,0.8c3.2-1.8,4.9-18.4,4.9-20.4c0-1.9-2.7-26.6-4.3-31.3
		C224.5,51.8,223.1,52.3,223.1,52.3z"/>
	<linearGradient id="SVGID_1_" gradientUnits="userSpaceOnUse" x1="270.4269" y1="35.057" x2="156.1969" y2="220.6815">
		<stop  offset="0" style="stop-color:#FBAE47"/>
		<stop  offset="1" style="stop-color:#F37032"/>
	</linearGradient>
	<path class="st1" d="M46.6,252.5c5-4.3,7-15,11.7-20.4c9.8-11.3,21.1-16.6,21.6-17.3c1.9-2.3,1.1-16.6,18.2-37.2
		c7.7-9.3,15.4-9.5,19.1-15.6c-1.3,0.5-5,2.2-9.7,0.6c-5.9-8.6-1-50.1,42.2-95.7C163.3,52.5,189,34.8,205,34.8
		c8.6,0,14.2,4.5,14.2,4.5c1.4,4.3-1.6,16.6-1.6,16.6s3.3-3.5,7-4.2c0.8,1.3,1.2,6.1,1.3,8.5c-0.1-0.7-0.6-3.8-0.9-3.7
		c-0.4,0-0.4,2.1-0.4,3.1c-2.3,11.9-11,31.3-25.5,41.3c-3.4,2.4-11.4,3.1-12.6-9.2c-10.6,17.5,6.6,33.4-5.1,51.2
		c3.9-2.1,34.6-19.1,36.8-17.2c2.2,1.8-9,30.2-10.4,34c3.1,1.6,6.9,4.1,10.2,8.1c8.5,10.1,13.5,13.5,23.3,15
		c11.3,1.7,34.9,4.5,35.4,4.9c0.5,0.4,2.1,5,2,6.2c0,0.4-0.4,1.3-1.2,2.5c-1.8,3.1-5.9,8.1-12.4,11.6c-2.2,1.2-9.4,3.4-19.1,6
		c-9.6-2.4-29.3,0.9-44.9,4.7c-20.3,4.9-38.7,16-38.7,16l-3.2,2.6c0,0-11.1,9.3-28.6,11c-11.8,1.1-9.2,2.5-11.3,2
		c-1.4-0.3-6-2.3-7.5-4.3c-1.5-1.9-2.9-5.1,6.9-8.1c-6.2,1.8-9.3,2.1-16.3,0.8c-19.7,3.3-38.6,9.3-46.3,13.1L46.6,252.5z"/>
	<linearGradient id="SVGID_2_" gradientUnits="userSpaceOnUse" x1="145.7164" y1="260.0869" x2="248.4904" y2="37.797">
		<stop  offset="0" style="stop-color:#F7941E"/>
		<stop  offset="1" style="stop-color:#FFFFFF"/>
	</linearGradient>
	<path class="st2" d="M56.2,251.9c7.8-3.8,26.7-9.8,46.3-13.1c7,1.3,10.1,0.9,16.3-0.8c-9.9,3-8.4,6.2-6.9,8.1
		c1.6,2.1,6.1,4,7.5,4.3c2.1,0.5-0.5-0.9,11.3-2c17.5-1.6,28.6-11,28.6-11l3.2-2.6c0,0,18.4-11.1,38.7-16
		c15.6-3.8,35.3-7.1,44.9-4.7c9.6-2.6,16.8-4.8,19.1-6c6.6-3.5,10.6-8.5,12.4-11.6c0.8-1.2,1.1-2.2,1.2-2.5c0.1-0.7-0.4-2.4-0.9-3.8
		c-12.4,1.3-23.5-1.1-33.2-0.7c1.7,0.3,3.1,1,3.9,1.3c-5.3-0.4-23.7-3-27.9-3.2c1.7,0.5,2.9,1.3,4.5,2.1c-5-1.2-9.5-1-12.3-1.1
		c-3.6-0.2-6.3-0.4-7.4-0.9c-1.1-0.5-2.4-3.2-5.4-5.9c-3.5-3.1-8.1-5.2-11.3-5.8c2.3-0.5,3.9-2.4,4.2-3c-2.2,0.9-7.7,1.2-13.7,1.1
		c-18.2-0.3-28.3,7.7-28.3,7.7s-3.5-4.4-2.1-10.8c0.6-3,1.7-6.7,3.7-11.8c-1.2,0.4-1.3,1.2-2.3,2.1c0.8-3.7,2.4-7.6,3.6-10.4
		c0.9-1.9-1.3-1.8-4.2,0.6c-1,0.8-2.6,2.3-3.6,3.5c0.1-0.9,0.6-1.6,0.9-2.3c-3.4,3.3-8.2,13.3-9.2,16.3c0-1.2,0.5-4.8,0.7-5.3
		c-1.9,2.3-4.1,6.8-4,7.7c0.3,3.5,1.4,8.2,4.9,13.2c-1.6,0.1-9.9-9-11.3-7.3c-1.4,1.7-0.3,5.3-0.2,7.2c-1.9-1.7-5.2-6.2-18.7,1.8
		c-12.8,7.6-14-0.7-7-12.7c-1.3,1.1-2.6,2.5-4,4.1c-17.1,20.6-16.3,34.9-18.2,37.2c-0.3,0.4-3.8,2.1-8.5,5.5c2.5-0.7,6-1.4,3.4,1.7
		c-3.1,3.7-16,13.6-19.6,14.9c-2.9,5.6-4.9,12.5-8.6,15.7"/>
	<linearGradient id="SVGID_3_" gradientUnits="userSpaceOnUse" x1="145.7164" y1="260.0869" x2="248.4904" y2="37.797">
		<stop  offset="0" style="stop-color:#F7941E"/>
		<stop  offset="1" style="stop-color:#FFFFFF"/>
	</linearGradient>
	<path class="st3" d="M56.2,251.9c7.8-3.8,26.7-9.8,46.3-13.1c7,1.3,10.1,0.9,16.3-0.8c-9.9,3-8.4,6.2-6.9,8.1
		c1.6,2.1,6.1,4,7.5,4.3c2.1,0.5-0.5-0.9,11.3-2c17.5-1.6,28.6-11,28.6-11l3.2-2.6c0,0,18.4-11.1,38.7-16
		c15.6-3.8,35.3-7.1,44.9-4.7c9.6-2.6,16.8-4.8,19.1-6c6.6-3.5,10.6-8.5,12.4-11.6c0.8-1.2,1.1-2.2,1.2-2.5c0.1-0.7-0.4-2.4-0.9-3.8
		c-12.4,1.3-23.5-1.1-33.2-0.7c1.7,0.3,3.1,1,3.9,1.3c-5.3-0.4-23.7-3-27.9-3.2c1.7,0.5,2.9,1.3,4.5,2.1c-5-1.2-9.5-1-12.3-1.1
		c-3.6-0.2-6.3-0.4-7.4-0.9c-1.1-0.5-2.4-3.2-5.4-5.9c-3.5-3.1-8.1-5.2-11.3-5.8c2.3-0.5,3.9-2.4,4.2-3c-2.2,0.9-7.7,1.2-13.7,1.1
		c-18.2-0.3-28.3,7.7-28.3,7.7s-3.5-4.4-2.1-10.8c0.6-3,1.7-6.7,3.7-11.8c-1.2,0.4-1.3,1.2-2.3,2.1c0.8-3.7,2.4-7.6,3.6-10.4
		c0.9-1.9-1.3-1.8-4.2,0.6c-1,0.8-2.6,2.3-3.6,3.5c0.1-0.9,0.6-1.6,0.9-2.3c-3.4,3.3-8.2,13.3-9.2,16.3c0-1.2,0.5-4.8,0.7-5.3
		c-1.9,2.3-4.1,6.8-4,7.7c0.3,3.5,1.4,8.2,4.9,13.2c-1.6,0.1-9.9-9-11.3-7.3c-1.4,1.7-0.3,5.3-0.2,7.2c-1.9-1.7-5.2-6.2-18.7,1.8
		c-12.8,7.6-14-0.7-7-12.7c-1.3,1.1-2.6,2.5-4,4.1c-17.1,20.6-16.3,34.9-18.2,37.2c-0.3,0.4-3.8,2.1-8.5,5.5c2.5-0.7,6-1.4,3.4,1.7
		c-3.1,3.7-16,13.6-19.6,14.9c-2.9,5.6-4.9,12.5-8.6,15.7L56.2,251.9z"/>
	
		<linearGradient id="SVGID_4_" gradientUnits="userSpaceOnUse" x1="152.4161" y1="472.0223" x2="255.1293" y2="249.8641" gradientTransform="matrix(0.9956 -9.370000e-02 9.370000e-02 0.9956 -42.8158 -198.4468)">
		<stop  offset="0" style="stop-color:#F7941E"/>
		<stop  offset="1" style="stop-color:#FFFFFF"/>
	</linearGradient>
	<path class="st4" d="M199.1,156.5c0,0-9-2.3-13.4-2.9c-4.4-0.6-6.4-0.7-6.4-0.7l0-5.6c0,0,6.9-4,13.8-5.8
		c6.9-1.8,10.8-0.3,10.9-0.1c0.1,0.2-5.5,8.2-4.5,8.1c1-0.1,3-1.7,3-1.7s-2.5,3.8-2.9,4.7c-0.4,0.9-1.3,2.8-0.5,2.7
		c0.7-0.1,2.9-0.6,2.9-0.6L199.1,156.5z"/>
	<linearGradient id="SVGID_5_" gradientUnits="userSpaceOnUse" x1="123.4413" y1="254.6021" x2="132.2915" y2="188.3779">
		<stop  offset="0" style="stop-color:#B22B2A"/>
		<stop  offset="1" style="stop-color:#F36B31;stop-opacity:0"/>
	</linearGradient>
	<path class="st5" d="M56.2,251.9c7.8-3.8,26.7-9.8,46.3-13.1c7,1.3,10.1,0.9,16.3-0.8c-6.4,2-8,4-8,5.7c0,0.9,0.5,1.7,1,2.4
		c1.6,2.1,6.1,4,7.5,4.3c2.1,0.5-0.5-0.9,11.3-2c17.5-1.6,28.6-11,28.6-11l3.2-2.6c0,0,18.4-11.1,38.7-16c0.5-0.1,1.1-0.3,1.6-0.4
		c2.2-4.2,3.5-6.9,3.5-6.9s-15.7,4.5-26.8,3c-4.6-0.6-4.2-3.6-6.8-4.5c-8.7-2.9-14.3-11.5-29.9-13.7c-11.4-1.5-23.7,4.6-23.7,4.6
		l5.5,1.2c0,0-11.2,4-20.9,1.5c-9.8-2.6-10.9-9.7-10.2-13c-2.7,3.3-9.8,14.9-10.1,25.5c-0.3,3.7-3.1,9-6.4,12.2
		c0.5-1.1,0.8-2.1,1-3.2c-1.5,2.5-5.3,6.3-7,7.5c-4.1,2.9-13.6,8.2-17.6,8.2c-2,4.6-3.9,9.2-6.8,11.7L56.2,251.9z"/>
	<path class="st0" d="M204.8,140.8c1,1.6,2.7,2,3.4,1.1c0.7-0.9,6.2-4.3,6.5-3.9c0.3,0.4,0.6,0.5,0.9,0.5c2.1-6.4,3.6-12,2.7-12.8
		c-1-0.8-7.3,2-14.5,5.5c-0.4,1-0.6,3.1-0.4,4.9c0.3-0.9,0.5-1.4,0.8-2C203.6,136.5,204.1,139.5,204.8,140.8z"/>
	<path class="st6" d="M207.3,159.5c0,0-2.7-1.3-5.3-2c0.3-0.4,2.5-3.1,3.7-5.5c-2.4,1.3-4.3,1.1-4.3,1.1s6.5-6.3,9-11.8
		c-1.4,1.4-2.1,1.9-3.7,2.7c3.8-5.9,8.8-14.1,10-13.9C217.8,130.6,207.3,159.5,207.3,159.5z"/>
	<path class="st0" d="M180.3,132.9L180.3,132.9c0.3-1.5,0.6-2.9,1.1-4.3c1.7-5.1,1.5-7.6-0.7-7.4c-4.3,0.4-22.7,15.3-23.2,16.5
		c0.7-0.3,3.7-0.8,5.5-0.7c-0.4,0.1-1.4,0.9-2.5,1c1.1,0.3,3.6,1.7,4.3,1.6c1.6-0.2,2.7-3.6,3.5-5.2c1.8-1.3,9.8-1.1,10.5-0.7
		C179.6,134,180.3,132.9,180.3,132.9z"/>
	<path class="st6" d="M172.9,156.3c0,0,4.9-0.6,5.2-1.3c0.3-0.7-0.6-11.1,0.1-17.8c0.7-6.7,3.9-13.2,2.2-13.2
		c-10.5,1.5-27.1,34.1-28.2,43.1c3.4-5.5,7.3-7.3,7.3-7.3s-3.9,4.9-6.9,11.3c-3,6.4-1.8,9.9-1.8,9.9s3.3-5.8,6.9-8.7
		c3.6-2.9,7.2-4.1,7.2-4.1l-4-0.9c0,0,4.8-3.8,8.9-5.3c4-1.6,7.7-3.5,7.7-3.5L172.9,156.3z"/>
	
		<linearGradient id="SVGID_6_" gradientUnits="userSpaceOnUse" x1="156.671" y1="358.2701" x2="182.233" y2="364.4668" gradientTransform="matrix(0.9956 -9.370000e-02 9.370000e-02 0.9956 -42.8153 -198.4468)">
		<stop  offset="0" style="stop-color:#FFDBAE"/>
		<stop  offset="1" style="stop-color:#FBAE47;stop-opacity:0"/>
	</linearGradient>
	<path class="st7" d="M178.6,126.1c0,0-5.1,2.2-11.8,13.4c-6.7,11.2-11.2,21.9-11.2,21.9s3.5-3.9,8.2-4.8
		c-4.2,2.9-6.7,10.4-6.7,10.4s5-4.1,6.1-7.9c0.2,1.6,0.1,2.3-0.3,3.8c1.7-0.2,4-1.3,5.5-3.8c-0.8-0.3-1.6-0.9-1.7-1.2
		c4.4,1.3,6,0.6,6.2,0.1c-2.4-0.6-4-2.2-4.5-2.9c1.3,0.1,3,0.2,4.3-1.4c1.3-1.6,1.9-11.2,2.2-13.8c0.3-2.6,0.6-4,0.7-4.9
		c-0.7,0.9-2.4,5.9-2.4,5.9s0.4-5.7,4.1-11.6c-0.5,0.3-1.2,0.7-1.9,1.4C176,129.6,178.6,127.4,178.6,126.1z"/>
	
		<linearGradient id="SVGID_7_" gradientUnits="userSpaceOnUse" x1="192.7293" y1="381.3166" x2="220.6917" y2="366.5339" gradientTransform="matrix(0.9956 -9.370000e-02 9.370000e-02 0.9956 -42.8153 -198.4468)">
		<stop  offset="0" style="stop-color:#FFDBAE"/>
		<stop  offset="1" style="stop-color:#FBAE47;stop-opacity:0"/>
	</linearGradient>
	<path class="st8" d="M210.9,147.7c0,0-0.4,0.7-0.9,0.9c4-9.2,6.1-16.1,5.8-16.3c-0.5-0.4-3.9,6.6-4.3,7.1c-0.4,0.5,1.7-1.1,1.7-1.1
		s-2.8,6-4.8,8.4c-2,2.4-3.1,3.6-3.1,3.6l1.8-0.9l-1.7,1.8l1.9-0.6c0,0-0.6,1.9-2,4.2c-0.8,1.3-1.7,2.3-2.3,3c1.5,0.5,3,1.1,3.8,1.5
		C207.6,156.9,210.9,147.7,210.9,147.7z"/>
	<path class="st0" d="M277.2,197.1C277.2,197.1,277.2,197.1,277.2,197.1L277.2,197.1C277.3,197,277.3,197,277.2,197.1
		c0.2-0.2,0.3-0.4,0.4-0.6c0.7-1.2,1.1-2.2,1.2-2.5c0.1-1.2-1.5-5.8-2-6.2c-0.2-0.2-5.2-0.9-11.6-1.7c-0.3,0.5-1,2-0.9,3.7
		c0.2,2,5.9,13,8.9,12.4C275.7,199.6,277,197.5,277.2,197.1z"/>
	<linearGradient id="SVGID_8_" gradientUnits="userSpaceOnUse" x1="70.7037" y1="247.8049" x2="157.8513" y2="42.3693">
		<stop  offset="0" style="stop-color:#F7941E"/>
		<stop  offset="1" style="stop-color:#FFFFFF"/>
	</linearGradient>
	<path class="st9" d="M130.4,90.3c-4.5,9.4-10.6,24.8-10.6,24.8l2.6-0.9c0,0-9.7,22.3-8.2,30.6c0.8,4.4,4.4,7.4,7.8,9.3
		c-1,1.4-1.1,2.9-4.6,7.9c-1.3,0.5-5,2.2-9.7,0.5C102.7,155.4,105.2,125.9,130.4,90.3z"/>
	<linearGradient id="SVGID_9_" gradientUnits="userSpaceOnUse" x1="122.4197" y1="249.2838" x2="225.1422" y2="27.1053">
		<stop  offset="0" style="stop-color:#F7941E"/>
		<stop  offset="1" style="stop-color:#FFFFFF"/>
	</linearGradient>
	<path class="st10" d="M176.8,122.9c1.6-1,3-1.6,3.9-1.7c2.2-0.2,2.3,2.2,0.7,7.4c-0.4,1.3-0.8,2.7-1,4.1c0,0,0,0.1,0,0.1
		c-0.9,3.8-1,11-1,11s0,0.2,2-0.9l0,0c11.7-17.7-5.5-33.7,5.1-51.1c1.2,12.3,9.2,11.6,12.6,9.2c14.4-10,23.2-29.4,25.5-41.3
		c0-1,0-3.1,0.4-3.1c0.4,0,0.8,3,0.9,3.7c-0.1-2.4-0.5-7.2-1.3-8.5c0,0,0,0,0,0c-0.2,1-7.6,30.2-21,36.5c-9.5,4.4-14,0-13.8-1.6
		c0.1-2.4,3.9-6.8,3.9-6.8s-9-2.1-15.7,13.6C171.3,109.3,176.7,122.9,176.8,122.9C176.7,122.9,176.8,122.9,176.8,122.9z"/>
	
		<linearGradient id="SVGID_10_" gradientUnits="userSpaceOnUse" x1="166.5197" y1="799.3923" x2="125.9596" y2="821.6649" gradientTransform="matrix(0.9545 -0.2983 0.2983 0.9545 -206.6543 -676.2985)">
		<stop  offset="1.226990e-02" style="stop-color:#FFF799"/>
		<stop  offset="0.1595" style="stop-color:#FFCC32"/>
		<stop  offset="0.2334" style="stop-color:#FEC232;stop-opacity:0.9121"/>
		<stop  offset="0.4054" style="stop-color:#FCB033;stop-opacity:0.7075"/>
		<stop  offset="0.5854" style="stop-color:#FAA333;stop-opacity:0.4933"/>
		<stop  offset="0.777" style="stop-color:#F89B33;stop-opacity:0.2653"/>
		<stop  offset="1" style="stop-color:#F89933;stop-opacity:0"/>
	</linearGradient>
	<path class="st11" d="M194.8,40.6c0,0-17.8,7.3-33.2,19.7c-16.8,13.6,1.5,7.1,5.2,4.9C170.5,63,181.4,49.1,194.8,40.6z"/>
	
		<linearGradient id="SVGID_11_" gradientUnits="userSpaceOnUse" x1="37.2385" y1="1146.1287" x2="-3.395" y2="1168.4417" gradientTransform="matrix(0.8963 -0.4436 0.4436 0.8963 -371.0018 -964.1786)">
		<stop  offset="1.226990e-02" style="stop-color:#FFF799"/>
		<stop  offset="0.1595" style="stop-color:#FFCC32"/>
		<stop  offset="0.2334" style="stop-color:#FEC232;stop-opacity:0.9121"/>
		<stop  offset="0.4054" style="stop-color:#FCB033;stop-opacity:0.7075"/>
		<stop  offset="0.5854" style="stop-color:#FAA333;stop-opacity:0.4933"/>
		<stop  offset="0.777" style="stop-color:#F89B33;stop-opacity:0.2653"/>
		<stop  offset="1" style="stop-color:#F89933;stop-opacity:0"/>
	</linearGradient>
	<path class="st12" d="M175.3,49.5c0,0-16.5,9.9-29.7,24.6c-14.4,16,2.8,7.3,6.1,4.5C155.1,75.8,163.5,59.9,175.3,49.5z"/>
	
		<linearGradient id="SVGID_12_" gradientUnits="userSpaceOnUse" x1="-213.377" y1="1584.5696" x2="-254.0118" y2="1606.8832" gradientTransform="matrix(0.7829 -0.6222 0.6222 0.7829 -668.1956 -1307.677)">
		<stop  offset="1.226990e-02" style="stop-color:#FFF799"/>
		<stop  offset="0.1595" style="stop-color:#FFCC32"/>
		<stop  offset="0.2334" style="stop-color:#FEC232;stop-opacity:0.9121"/>
		<stop  offset="0.4054" style="stop-color:#FCB033;stop-opacity:0.7075"/>
		<stop  offset="0.5854" style="stop-color:#FAA333;stop-opacity:0.4933"/>
		<stop  offset="0.777" style="stop-color:#F89B33;stop-opacity:0.2653"/>
		<stop  offset="1" style="stop-color:#F89933;stop-opacity:0"/>
	</linearGradient>
	<path class="st13" d="M155.7,67.5c0,0-14,13.2-23.8,30.3c-10.7,18.7,4.3,6.6,6.9,3.1C141.4,97.6,146.3,80.2,155.7,67.5z"/>
	
		<linearGradient id="SVGID_13_" gradientUnits="userSpaceOnUse" x1="-36.1964" y1="1304.5867" x2="-76.7192" y2="1326.8387" gradientTransform="matrix(0.8617 -0.5073 0.5073 0.8617 -464.071 -1087.6948)">
		<stop  offset="1.226990e-02" style="stop-color:#FFF799"/>
		<stop  offset="0.1595" style="stop-color:#FFCC32"/>
		<stop  offset="0.2334" style="stop-color:#FEC232;stop-opacity:0.9121"/>
		<stop  offset="0.4054" style="stop-color:#FCB033;stop-opacity:0.7075"/>
		<stop  offset="0.5854" style="stop-color:#FAA333;stop-opacity:0.4933"/>
		<stop  offset="0.777" style="stop-color:#F89B33;stop-opacity:0.2653"/>
		<stop  offset="1" style="stop-color:#F89933;stop-opacity:0"/>
	</linearGradient>
	<path class="st14" d="M171.3,57.4c0,0-15.7,11.1-27.8,26.7c-13.2,17,5,7.5,8.1,4.5C154.6,85.6,160.2,68.6,171.3,57.4z"/>
	
		<linearGradient id="SVGID_14_" gradientUnits="userSpaceOnUse" x1="156.9138" y1="808.3773" x2="128.1552" y2="824.1694" gradientTransform="matrix(0.9545 -0.2983 0.2983 0.9545 -206.6543 -676.2985)">
		<stop  offset="1.226990e-02" style="stop-color:#FFF799"/>
		<stop  offset="0.1595" style="stop-color:#FFCC32"/>
		<stop  offset="0.2334" style="stop-color:#FEC232;stop-opacity:0.9121"/>
		<stop  offset="0.4054" style="stop-color:#FCB033;stop-opacity:0.7075"/>
		<stop  offset="0.5854" style="stop-color:#FAA333;stop-opacity:0.4933"/>
		<stop  offset="0.777" style="stop-color:#F89B33;stop-opacity:0.2653"/>
		<stop  offset="1" style="stop-color:#F89933;stop-opacity:0"/>
	</linearGradient>
	<path class="st15" d="M185.8,49.8c0,0-16.4,7.2-22.9,16.1c-6.6,8.9,1.2,9,6.1,3.6C173.9,64.1,178.2,55.6,185.8,49.8z"/>
	<linearGradient id="SVGID_15_" gradientUnits="userSpaceOnUse" x1="133.0251" y1="109.4398" x2="117.8379" y2="139.0859">
		<stop  offset="1.226990e-02" style="stop-color:#FFF799"/>
		<stop  offset="0.1595" style="stop-color:#FFCC32"/>
		<stop  offset="0.2334" style="stop-color:#FEC232;stop-opacity:0.9121"/>
		<stop  offset="0.4054" style="stop-color:#FCB033;stop-opacity:0.7075"/>
		<stop  offset="0.5854" style="stop-color:#FAA333;stop-opacity:0.4933"/>
		<stop  offset="0.777" style="stop-color:#F89B33;stop-opacity:0.2653"/>
		<stop  offset="1" style="stop-color:#F89933;stop-opacity:0"/>
	</linearGradient>
	<path class="st16" d="M130.2,106.2c0,0-16.1,22.5-12.2,36.9C121.3,155.1,123.3,123.5,130.2,106.2z"/>
	<linearGradient id="SVGID_16_" gradientUnits="userSpaceOnUse" x1="130.6226" y1="115.6517" x2="121.3376" y2="148.89">
		<stop  offset="1.226990e-02" style="stop-color:#FFF799"/>
		<stop  offset="0.1595" style="stop-color:#FFCC32"/>
		<stop  offset="0.2334" style="stop-color:#FEC232;stop-opacity:0.9121"/>
		<stop  offset="0.4054" style="stop-color:#FCB033;stop-opacity:0.7075"/>
		<stop  offset="0.5854" style="stop-color:#FAA333;stop-opacity:0.4933"/>
		<stop  offset="0.777" style="stop-color:#F89B33;stop-opacity:0.2653"/>
		<stop  offset="1" style="stop-color:#F89933;stop-opacity:0"/>
	</linearGradient>
	<path class="st17" d="M128.6,114.6c0,0-12.8,26.1-6.9,34.7C127.6,157.8,123.4,143.7,128.6,114.6z"/>
	<path class="st18" d="M200.9,203c12-3.2,33.8-0.5,41.2-0.8c-1.8-0.7-5-1.4-8.2-2.5c10.1-0.7,30.7,1.5,39.8-1.9
		c2-0.7,3.5-0.7,3.5-0.7c0.2-0.4-5,9.4-18.7,14.9c-13.3,5.3-15,5.5-16.2,5.6c0.5-0.6,1.2-2.8-1.3-2.5c-3,0.3-28,1.4-39.9,10.9
		c-15.3,12.3-25.2,11.8-25.2,11.8s5-1.5,6.8-4.2c-2.7,1.2-20,7.3-37.5,1.5c-10.3-3.4-15.7-7.3-15.7-7.3s3.8,0.8,6.6,0.4
		c-6.6-3.7-18.3-12.6-21.5-27.3c5.7,2.9,14.4,5.7,25.5,2.2c0.3-0.8-3-2.2-8.9-2.2c0.3-0.6,17-4.5,29,0.7c-0.6-1.2-1.3-3.1-1.3-4.4
		c3.5,4.6,14.6,13.5,25.3,13.5c14.3,0,20.2-6.8,20.2-6.8S203.4,203.3,200.9,203z"/>
	<linearGradient id="SVGID_17_" gradientUnits="userSpaceOnUse" x1="220.8285" y1="222.9829" x2="118.256" y2="213.4702">
		<stop  offset="0" style="stop-color:#FFFFFF;stop-opacity:0"/>
		<stop  offset="1" style="stop-color:#FFE5C2"/>
	</linearGradient>
	<path class="st19" d="M214.3,219.4L214.3,219.4c0,0-13.1,2.3-20.8,6.2c-7.7,3.9-24.9,9.7-32.5,5.7c2.5,0.1,4.4-0.7,5.2-1.4
		c-23.8,0.2-33.1-12.2-36-18.9c8.2,3.9,16.8,0,23.4,1.8c-2-1.6-3.9-2.9-6.5-3.8c4.2-0.3,31.8,8.9,38.8,6.1c-1.6-0.2-3.5-1.2-3.5-1.2
		s10.4-0.6,16.2-4.5c5.1-3.4,5.4-5.7,5.4-5.7s-5.9,6.8-20.2,6.8c-10.7,0-21.8-8.9-25.3-13.5c0,1.3,0.6,3.2,1.3,4.4
		c-12-5.2-28.8-1.2-29-0.7c5.9,0,9.3,1.4,8.9,2.2c-11.1,3.5-19.8,0.7-25.5-2.2c3.2,14.7,14.9,23.7,21.5,27.3
		c-2.8,0.5-6.6-0.4-6.6-0.4s5.4,3.8,15.7,7.3c17.6,5.8,34.8-0.2,37.5-1.5c-1.8,2.7-6.8,4.2-6.8,4.2s9.8,0.5,25.2-11.8
		C204.6,223.1,209.4,221,214.3,219.4z"/>
	<path class="st0" d="M277.2,197.1C277.2,197.1,277.2,197.1,277.2,197.1L277.2,197.1C277.3,197,277.3,197,277.2,197.1
		c0.2-0.2,0.3-0.4,0.4-0.6c0.7-1.2,1.1-2.2,1.2-2.5c0.1-1.2-1.5-5.8-2-6.2c-0.2-0.2-5.2-0.9-11.6-1.7c-0.3,0.5-1,2-0.9,3.7
		c0.2,2,5.9,13,8.9,12.4C275.7,199.6,277,197.5,277.2,197.1z"/>
	
		<linearGradient id="SVGID_18_" gradientUnits="userSpaceOnUse" x1="271.1519" y1="415.7746" x2="295.32" y2="409.274" gradientTransform="matrix(0.9956 -9.370000e-02 9.370000e-02 0.9956 -42.8153 -198.4468)">
		<stop  offset="0" style="stop-color:#FFFFFF;stop-opacity:0"/>
		<stop  offset="1" style="stop-color:#FFE5C2"/>
	</linearGradient>
	<path class="st20" d="M265.9,186.8c0.7-0.2,10.3,1,10.4,1.4c0,0.4-0.2,1.6-0.8,1.7c-0.7,0.2-9.7,0.2-10.1,0.1
		C265.1,189.9,265.2,187,265.9,186.8z"/>
	<path class="st18" d="M251.5,214.6"/>
	<path class="st0" d="M119.4,247.6c-2.8-0.6-3.6-0.4-3.7-0.1c-0.1,0.5,0.1,1,1,1.6c1.1,0.8,1.6,1,4.6,1.7c0,0,6.1,1.5,6.7,1.7
		c0.6,0.1,1.9-0.4,1.9-0.3c-1.1,0.7-9.2,4.6-21.1,4.6c-4,0-7.4-1.9-11.4-1.9c-4,0-9.1,1.5-9.1,3.9c0,2.4,7,8.5,13.8,8.5
		c6.8,0,38.3-7.7,38.3-14.7c0-0.4-0.1-2.6-1.4-3c-1.6-0.5-4.1-1-7-1.5C124,249.1,122.2,248.3,119.4,247.6z"/>
	<path class="st21" d="M129.5,253.6c-0.4-0.1-5.5,2.2-11.6,3.3c-4.5,0.9-9.2,1.4-11.6,0.9c-5.5-1-10.9,5.7-3,4.9
		C111.2,262,134.8,255.4,129.5,253.6z"/>
	<path class="st21" d="M121.6,81.2c0.4,0.8,1.3,0.9,3.6,0.1c2.2-0.8,18.7-12.7,16.4-13.5C139.2,67.1,120.9,80.1,121.6,81.2z"/>
	<path class="st21" d="M225.6,97.3c0.8-2.8-0.3-5-0.9-3.8c-0.9,1.8-1.9,4.1-2.6,4.6c-0.5,0.4-2.1,0.3-2.4,0.6
		c-0.3,0.3-1.9,3.9,3.4,2.9C224.1,101.5,225,99.5,225.6,97.3z"/>
	<path class="st0" d="M60.4,247.4c-3.6,1.1-8.7,2.8-14.1,5.3c-0.5,0.2-1,0.5-1.4,0.8c-0.2,0.1-0.4,0.2-0.6,0.3
		c-0.3,0.2-0.6,0.3-0.8,0.5c-0.5,0.3-1,0.6-1.5,0.9c0,0,0,0,0,0h0c-3.4,2.1-7.1,4.8-11,7.5c-9.4,6.7-14.4,13.2-19.3,18.4
		c-1,1-5.6,4.7-5.6,5.7c0,1.9,0.3,4.4,4.6,4.4c7.4,0,10.4-1.5,13.5-7c4.2-11.8,21-25.4,34.3-33.8c0.7-0.5,0.9-0.9,0.7-1
		c-0.3-0.2-2.5,0.9-4.5,1.4C54.8,250.8,57.9,248.6,60.4,247.4z"/>
	<path class="st21" d="M39.9,258.1c-0.4-0.4-2.4,0.4-4.2,1.2c-1.5,1.1-3.1,2.2-4.7,3.3c-9.4,6.7-14.4,13.2-19.3,18.4
		c-0.7,0.8-3.3,2.9-4.7,4.4c1.1,1.5,5.7,1.5,8.7,0.6c4.1-1.3,6.9-8.9,10.1-12.9C29,269.1,40.8,259,39.9,258.1z"/>
	<linearGradient id="SVGID_19_" gradientUnits="userSpaceOnUse" x1="181.8535" y1="183.161" x2="184.3722" y2="193.9286">
		<stop  offset="0" style="stop-color:#B22B2A"/>
		<stop  offset="1" style="stop-color:#F36B31;stop-opacity:0"/>
	</linearGradient>
	<path class="st22" d="M193.5,195.1c0.6-1.1-0.2-10.3-4.8-11.1c-6.7-1.3-12.8,5.3-14.3,9.6c4.8-1.9,7.1-1.2,11-1
		C189.4,192.9,191.5,193.7,193.5,195.1z"/>
	<path class="st0" d="M174.5,193.4c0.5-0.5,7-7.5,14.1-7.5c4.8,0,6.2,8.4,4.5,10.1C188.3,193,177.3,196.8,174.5,193.4z"/>
	
		<linearGradient id="SVGID_20_" gradientUnits="userSpaceOnUse" x1="193.2072" y1="409.0351" x2="198.5882" y2="403.8149" gradientTransform="matrix(0.9956 -9.370000e-02 9.370000e-02 0.9956 -42.8148 -198.4468)">
		<stop  offset="0" style="stop-color:#FFFFFF;stop-opacity:0"/>
		<stop  offset="1" style="stop-color:#FFE5C2"/>
	</linearGradient>
	<path class="st23" d="M184.6,187.4c0,0,3.9-1.8,5.6-0.6c2.8,2,2.8,5.2,2,5.7C191.5,193.1,182.3,190.2,184.6,187.4z"/>
</g>
<g>
	
		<linearGradient id="SVGID_21_" gradientUnits="userSpaceOnUse" x1="521.2452" y1="-77.919" x2="436.0909" y2="-32.7731" gradientTransform="matrix(0.9939 0.1099 -0.1099 0.9939 25.6971 204.6498)">
		<stop  offset="0" style="stop-color:#FBAE47"/>
		<stop  offset="1" style="stop-color:#F37032"/>
	</linearGradient>
	<path class="st24" d="M438.5,202.4c0,0,73.5,37.7,114.7-16.9c0.8,17.3-19.1,42.9-49.4,39.6C465.5,220.8,438.5,202.4,438.5,202.4z"
		/>
	
		<linearGradient id="SVGID_22_" gradientUnits="userSpaceOnUse" x1="503.9159" y1="-83.8626" x2="436.7064" y2="-6.224" gradientTransform="matrix(0.9939 0.1099 -0.1099 0.9939 25.6971 204.6498)">
		<stop  offset="1.226990e-02" style="stop-color:#FFF799"/>
		<stop  offset="0.1595" style="stop-color:#FFCC32"/>
		<stop  offset="0.2334" style="stop-color:#FEC232;stop-opacity:0.9121"/>
		<stop  offset="0.4054" style="stop-color:#FCB033;stop-opacity:0.7075"/>
		<stop  offset="0.5854" style="stop-color:#FAA333;stop-opacity:0.4933"/>
		<stop  offset="0.777" style="stop-color:#F89B33;stop-opacity:0.2653"/>
		<stop  offset="1" style="stop-color:#F89933;stop-opacity:0"/>
	</linearGradient>
	<path class="st25" d="M550.8,190.1c0,0-7.1,12.8-27.3,20.5c-20.2,7.7-37.4,8.4-59.1,4c-21.8-4.4,24.9,16.2,42.1,10.5
		C523.6,219.5,543,210.1,550.8,190.1z"/>
	
		<linearGradient id="SVGID_23_" gradientUnits="userSpaceOnUse" x1="337.1244" y1="-5.7321" x2="290.1523" y2="-83.6078" gradientTransform="matrix(0.9939 0.1099 -0.1099 0.9939 25.6971 204.6498)">
		<stop  offset="0" style="stop-color:#FBAE47"/>
		<stop  offset="1" style="stop-color:#F37032"/>
	</linearGradient>
	<path class="st26" d="M334.6,124.7c10.7,62,10.2,94,27.9,124.3c-4.2-2.1-21.8-18.8-26.6-40c-0.3,1.8-3.1,10.7,1.4,19.6
		C303.1,191.1,332.8,166.1,334.6,124.7z"/>
	
		<linearGradient id="SVGID_24_" gradientUnits="userSpaceOnUse" x1="128.5163" y1="-206.3253" x2="285.5445" y2="-166.12" gradientTransform="matrix(0.9939 0.1099 -0.1099 0.9939 25.6971 204.6498)">
		<stop  offset="0" style="stop-color:#FBAE47"/>
		<stop  offset="1" style="stop-color:#F37032"/>
	</linearGradient>
	<path class="st27" d="M206.2,37.4c32.4-2.4,47.7,52.4,111.1,48.8c3.2-2.5-32.8-65.5-58.5-68.4C223.5,13.9,207,30.5,206.2,37.4z"/>
	
		<linearGradient id="SVGID_25_" gradientUnits="userSpaceOnUse" x1="136.2311" y1="-175.3894" x2="235.0375" y2="-179.8464" gradientTransform="matrix(0.9939 0.1099 -0.1099 0.9939 25.6971 204.6498)">
		<stop  offset="0" style="stop-color:#FBAE47"/>
		<stop  offset="1" style="stop-color:#F37032"/>
	</linearGradient>
	<path class="st28" d="M317.3,86.2c3.2-2.5-32.8-65.5-58.5-68.4c-35-3.9-51.6,12.5-52.5,19.4c1.5-1.6,6.5-5.2,19.8-4
		c16.9,1.5,66.7,23.2,71.7,31c-2.8,1.1-20.8-0.7-43.7-14c4.3,9.6,27.1,31.3,50.6,35.8C308.6,86.4,312.8,86.5,317.3,86.2z"/>
	
		<linearGradient id="SVGID_26_" gradientUnits="userSpaceOnUse" x1="176.9042" y1="-198.0943" x2="227.634" y2="-194.9651" gradientTransform="matrix(0.9939 0.1099 -0.1099 0.9939 25.6971 204.6498)">
		<stop  offset="0" style="stop-color:#FBAE47"/>
		<stop  offset="1" style="stop-color:#F37032"/>
	</linearGradient>
	<path class="st29" d="M281,31.1c-21.1-8.4-40.5-5-47.7-4.1c0,0,16.1,0.6,39.4,8.7c7.4,2.6,15.3,6.9,22.7,11.7
		C290.9,41.6,286,35.9,281,31.1z"/>
	
		<linearGradient id="SVGID_27_" gradientUnits="userSpaceOnUse" x1="281.6142" y1="-209.5737" x2="172.8793" y2="-144.5212" gradientTransform="matrix(0.9939 0.1099 -0.1099 0.9939 25.6971 204.6498)">
		<stop  offset="0" style="stop-color:#B22B2A"/>
		<stop  offset="1" style="stop-color:#F36B31;stop-opacity:0"/>
	</linearGradient>
	<path class="st30" d="M258.8,17.8c-35-3.9-51.6,12.5-52.5,19.4c2-2.3,11.2-10.2,38.4-4.2c31.6,7,42,17.6,42,17.6l-9.8-2.2
		c0,0,21.5,7.7,27.7,19.1c5.4,9.9-12.5,14.6-21.8,14.1c9.8,3.4,21.1,5.3,34.5,4.5C320.5,83.7,284.4,20.6,258.8,17.8z"/>
	
		<linearGradient id="SVGID_28_" gradientUnits="userSpaceOnUse" x1="388.0141" y1="-70.624" x2="351.8416" y2="-96.6123" gradientTransform="matrix(0.9939 0.1099 -0.1099 0.9939 25.6971 204.6498)">
		<stop  offset="0" style="stop-color:#FBAE47"/>
		<stop  offset="1" style="stop-color:#F37032"/>
	</linearGradient>
	<path class="st31" d="M395.7,134.7c0,0-6.2,22.5,9.1,42.9c15.3,20.5-40.7-25.7-40.1-31.2c0.6-5.5,13.8-16.3,19.7-16.3
		C390.4,130.1,388.4,131.2,395.7,134.7z"/>
	
		<linearGradient id="SVGID_29_" gradientUnits="userSpaceOnUse" x1="327.871" y1="-138.5669" x2="267.6599" y2="-186.9978" gradientTransform="matrix(0.9939 0.1099 -0.1099 0.9939 25.6971 204.6498)">
		<stop  offset="0" style="stop-color:#FBAE47"/>
		<stop  offset="1" style="stop-color:#F37032"/>
	</linearGradient>
	<path class="st32" d="M305.6,28.3c0,0,7.4-1.6,17.4-0.5c25.9,2.9,89.5,81.6,86.7,123.8c-8-13.7-27.4-21.5-34.4-16.5
		c-5.4,4,6.1,24.1,6.1,24.1s-38.9-35.7-42.8-53.4c-3.8-17.7-10.6-53.5-17.1-61.7C315,36,305.6,28.3,305.6,28.3z"/>
	
		<linearGradient id="SVGID_30_" gradientUnits="userSpaceOnUse" x1="370.6789" y1="-82.9794" x2="217.8597" y2="-205.0389" gradientTransform="matrix(0.9939 0.1099 -0.1099 0.9939 25.6971 204.6498)">
		<stop  offset="0" style="stop-color:#FBAE47"/>
		<stop  offset="1" style="stop-color:#F37032"/>
	</linearGradient>
	<path class="st33" d="M355.5,100.1c4.6-1.5,12.1,7.2,12.1,7.2S339.8,20.8,274,13.5c-25.1-2.8-42.6,6.1-42.6,6.1s9.8-0.7,14.2-0.2
		c30.6,3.4,73.9,41.9,91.7,108.9c7.7,28.9,20.8,36.9,27.5,35.5C371.4,162.3,349.2,107.5,355.5,100.1z"/>
	
		<linearGradient id="SVGID_31_" gradientUnits="userSpaceOnUse" x1="459.9169" y1="-50.0811" x2="312.5766" y2="-161.4717" gradientTransform="matrix(0.9939 0.1099 -0.1099 0.9939 25.6971 204.6498)">
		<stop  offset="0" style="stop-color:#FBAE47"/>
		<stop  offset="1" style="stop-color:#F37032"/>
	</linearGradient>
	<path class="st34" d="M337.2,128.3c-17.8-67-61.2-105.6-91.7-108.9c29.6,0.6,87.5,44.5,77.5,58.9c8.2,13,84.8,132.3,167.3,141.4
		c74.9,8.3,97.9-60.6,98.6-66.9c1.3,35.3-27.8,155.7-143.9,142.8C378.3,288.2,344.9,157.2,337.2,128.3z"/>
	
		<linearGradient id="SVGID_32_" gradientUnits="userSpaceOnUse" x1="271.0122" y1="-121.0435" x2="317.0282" y2="-35.054" gradientTransform="matrix(0.9939 0.1099 -0.1099 0.9939 25.6971 204.6498)">
		<stop  offset="0" style="stop-color:#B22B2A"/>
		<stop  offset="1" style="stop-color:#F36B31;stop-opacity:0"/>
	</linearGradient>
	<path class="st35" d="M334.6,124.7c-1.7,39.2-28.5,63.7-2.4,97.9c-7.6-11-9-26.5-8.6-29.8c0.4-3.4,3.7,0.8,3.7,0.8
		s-0.4-25.7,5.8-28.5c4.2-1.8,8.1,9.5,10.2,17.2C341,166.2,338.6,147.5,334.6,124.7z"/>
	
		<linearGradient id="SVGID_33_" gradientUnits="userSpaceOnUse" x1="307.7921" y1="-14.2618" x2="311.1956" y2="-39.7294" gradientTransform="matrix(0.9939 0.1099 -0.1099 0.9939 25.6971 204.6498)">
		<stop  offset="0" style="stop-color:#FBAE47"/>
		<stop  offset="1" style="stop-color:#F37032"/>
	</linearGradient>
	<path class="st36" d="M335.9,208.9c0,0.2,0.1,0.3,0.1,0.5c-0.4-1.6-1-4.3-1.2-5.3c-0.2-1.5-0.5-3.5-0.5-3.5s-4.2,9.1-1.7,17.4
		c2.2,7.4,4.1,9.8,4.5,10.3c0,0,0,0.1,0.1,0.1C332.8,219.6,335.5,210.7,335.9,208.9z"/>
	
		<linearGradient id="SVGID_34_" gradientUnits="userSpaceOnUse" x1="564.2251" y1="-57.2027" x2="356.6728" y2="-6.9828" gradientTransform="matrix(0.9939 0.1099 -0.1099 0.9939 25.6971 204.6498)">
		<stop  offset="0" style="stop-color:#FBAE47"/>
		<stop  offset="1" style="stop-color:#F37032"/>
	</linearGradient>
	<path class="st37" d="M589,152.8c-0.7,6.4-23.8,75.2-98.6,66.9c-18.1-2-36-9.3-52.8-19.7c-4.1-1.6-13.5-3-16.5-0.5
		c-1.5,13.9,39.8,53.4,83.2,49.4c-23.5,18.8-47.9,8.3-57.7,16.2c2.3,6.4,16.6,17,26.3,9.3c27.4,12.9,61.9-0.6,87-30.4
		C582.4,210.7,589.7,170.8,589,152.8z"/>
	
		<linearGradient id="SVGID_35_" gradientUnits="userSpaceOnUse" x1="473.8986" y1="-6.2143" x2="401.1202" y2="-8.8142" gradientTransform="matrix(0.9939 0.1099 -0.1099 0.9939 25.6971 204.6498)">
		<stop  offset="1.226990e-02" style="stop-color:#FFF799"/>
		<stop  offset="0.1595" style="stop-color:#FFCC32"/>
		<stop  offset="0.2334" style="stop-color:#FEC232;stop-opacity:0.9121"/>
		<stop  offset="0.4054" style="stop-color:#FCB033;stop-opacity:0.7075"/>
		<stop  offset="0.5854" style="stop-color:#FAA333;stop-opacity:0.4933"/>
		<stop  offset="0.777" style="stop-color:#F89B33;stop-opacity:0.2653"/>
		<stop  offset="1" style="stop-color:#F89933;stop-opacity:0"/>
	</linearGradient>
	<path class="st38" d="M502.1,250c0,0-13.2,2-32.6-4.9c-15.5-5.5-20.3-10.5-23.9-11.6c-1.5-0.4-1.9,1.7-4.6,2
		c-9.3,1,2.6,19.5,27.8,20C494.1,255.9,502.1,250,502.1,250z"/>
	
		<linearGradient id="SVGID_36_" gradientUnits="userSpaceOnUse" x1="389.9571" y1="-96.3226" x2="389.9571" y2="-96.3226" gradientTransform="matrix(0.9939 0.1099 -0.1099 0.9939 25.6971 204.6498)">
		<stop  offset="1.226990e-02" style="stop-color:#FFF799"/>
		<stop  offset="0.1595" style="stop-color:#FFCC32"/>
		<stop  offset="0.2334" style="stop-color:#FEC232;stop-opacity:0.9121"/>
		<stop  offset="0.4054" style="stop-color:#FCB033;stop-opacity:0.7075"/>
		<stop  offset="0.5854" style="stop-color:#FAA333;stop-opacity:0.4933"/>
		<stop  offset="0.777" style="stop-color:#F89B33;stop-opacity:0.2653"/>
		<stop  offset="1" style="stop-color:#F89933;stop-opacity:0"/>
	</linearGradient>
	<path class="st39" d="M423.9,151.8"/>
	
		<linearGradient id="SVGID_37_" gradientUnits="userSpaceOnUse" x1="369.4209" y1="-102.8979" x2="294.5782" y2="-206.8777" gradientTransform="matrix(0.9939 0.1099 -0.1099 0.9939 25.6971 204.6498)">
		<stop  offset="1.226990e-02" style="stop-color:#FFF799"/>
		<stop  offset="0.1595" style="stop-color:#FFCC32"/>
		<stop  offset="0.2334" style="stop-color:#FEC232;stop-opacity:0.9121"/>
		<stop  offset="0.4054" style="stop-color:#FCB033;stop-opacity:0.7075"/>
		<stop  offset="0.5854" style="stop-color:#FAA333;stop-opacity:0.4933"/>
		<stop  offset="0.777" style="stop-color:#F89B33;stop-opacity:0.2653"/>
		<stop  offset="1" style="stop-color:#F89933;stop-opacity:0"/>
	</linearGradient>
	<path class="st40" d="M409.4,148.6c0,0-0.8-17.9-14.4-42.4c-16.4-29.5-28-45.5-33.8-48.7c-5.8-3.2-9.1,25.4,8.3,40.1
		C386.9,112.4,403,129.9,409.4,148.6z"/>
	
		<linearGradient id="SVGID_38_" gradientUnits="userSpaceOnUse" x1="367.9588" y1="-109.3814" x2="301.2173" y2="-159.9949" gradientTransform="matrix(0.9939 0.1099 -0.1099 0.9939 25.6971 204.6498)">
		<stop  offset="1.226990e-02" style="stop-color:#FFF799"/>
		<stop  offset="0.1595" style="stop-color:#FFCC32"/>
		<stop  offset="0.2334" style="stop-color:#FEC232;stop-opacity:0.9121"/>
		<stop  offset="0.4054" style="stop-color:#FCB033;stop-opacity:0.7075"/>
		<stop  offset="0.5854" style="stop-color:#FAA333;stop-opacity:0.4933"/>
		<stop  offset="0.777" style="stop-color:#F89B33;stop-opacity:0.2653"/>
		<stop  offset="1" style="stop-color:#F89933;stop-opacity:0"/>
	</linearGradient>
	<path class="st41" d="M405,142.2c0,0-2.3-12.1-12.9-25.8c-15.6-20.2-41.2-45.1-46.7-40.6c-2.4,1.9-4.7,12,2.2,20.4
		c9.1,10.9,29.2,20.9,37.1,26C398.7,131.2,403.6,139.1,405,142.2z"/>
	
		<linearGradient id="SVGID_39_" gradientUnits="userSpaceOnUse" x1="455.7605" y1="-2.6734" x2="403.8586" y2="-1.8046" gradientTransform="matrix(0.9939 0.1099 -0.1099 0.9939 25.6971 204.6498)">
		<stop  offset="1.226990e-02" style="stop-color:#FFF799"/>
		<stop  offset="0.1595" style="stop-color:#FFCC32"/>
		<stop  offset="0.2334" style="stop-color:#FEC232;stop-opacity:0.9121"/>
		<stop  offset="0.4054" style="stop-color:#FCB033;stop-opacity:0.7075"/>
		<stop  offset="0.5854" style="stop-color:#FAA333;stop-opacity:0.4933"/>
		<stop  offset="0.777" style="stop-color:#F89B33;stop-opacity:0.2653"/>
		<stop  offset="1" style="stop-color:#F89933;stop-opacity:0"/>
	</linearGradient>
	<path class="st42" d="M441.9,240.2c12.3,1.9,31.6,16,44.2,16c0,0-8.1,2.7-28.4,2.1c-20.3-0.6-27.4-5.6-24.9-12.3
		C433.4,244.4,437.8,239.5,441.9,240.2z"/>
	
		<linearGradient id="SVGID_40_" gradientUnits="userSpaceOnUse" x1="493.9212" y1="22.5708" x2="321.7957" y2="-54.7772" gradientTransform="matrix(0.9939 0.1099 -0.1099 0.9939 25.6971 204.6498)">
		<stop  offset="0" style="stop-color:#FBAE47"/>
		<stop  offset="1" style="stop-color:#F37032"/>
	</linearGradient>
	<path class="st43" d="M324.8,93.7c28.7,58.9,23.1,238,162,216.4c-47-2.8-77.4-62.3-72.2-64.6c5.2-2.3,12.1,3,15.1,6.9
		C438.8,216.5,362.4,165.7,324.8,93.7z"/>
	
		<linearGradient id="SVGID_41_" gradientUnits="userSpaceOnUse" x1="281.9322" y1="-121.5642" x2="341.4937" y2="-26.1476" gradientTransform="matrix(0.9939 0.1099 -0.1099 0.9939 25.6971 204.6498)">
		<stop  offset="0" style="stop-color:#B22B2A"/>
		<stop  offset="1" style="stop-color:#F36B31;stop-opacity:0"/>
	</linearGradient>
	<path class="st44" d="M363.3,229.2c0.6-6.9,2.4-16.2,8.3-18.8c-2.5-20-24.6-53.4-35.8-83.9C343.5,156.5,350.3,195,363.3,229.2z"/>
</g>
</svg>
