<?xml version="1.0" encoding="utf-8"?>
<!-- Generator: Adobe Illustrator 19.2.0, SVG Export Plug-In . SVG Version: 6.00 Build 0)  -->
<svg version="1.1" id="Layer_1" xmlns="http://www.w3.org/2000/svg" xmlns:xlink="http://www.w3.org/1999/xlink" x="0px" y="0px"
	 viewBox="0 0 1090 229" style="enable-background:new 0 0 1090 229;" xml:space="preserve">
<style type="text/css">
	.st0{opacity:0.7;fill:#FFCE07;}
	.st1{fill:#5BC1A4;}
	.st2{fill:#EF5195;}
</style>
<path class="st0" d="M0,229C12.1,229,88,7,129,7s51.7,70.1,98.5,70.1s49.2,38.9,90.3,38.9S399,30.8,440,30.8c32,0,75.2,62.4,97,62.4
	s51.4-47.6,72.7-47.6C631,45.7,656,97,681,97s35.9-36,60.5-36S772,92,802,92s53-65.7,84-65.7S935.6,97,959,97s16.4-11,43-11
	c27.4,0,75.1,143,88,143"/>
<path class="st1" d="M1090,229c-12.1,0-101.6-172-134.7-172s-46,38-92.7,38c-46.8,0-55.4,33-96.5,33s-65-61.1-95-61.1
	S602,166,561,166c-52,0-65-50-92-50s-38,37-76,37s-58-19-82-19c-21,0-26,12-58,12s-29.2,29-56.6,29s-31,20-54.4,20s-34.4-32-61-32
	c-27.4,0-68.1,66-81,66"/>
<path class="st2" d="M1090,229c-10.2,0-85.1-57.4-112.8-57.4s-38.5,19.5-77.7,19.5c-39.2,0-41.2,9.3-75.7,9.3
	c-34.5,0-53-17.3-89-17.3s-46.1,28-80.4,28c-43.6,0-65-10.5-75.1-10.5s-27.7,8.7-48.6,8.7s-38.5-15.7-50-15.7
	c-6,0-15.6,6.8-25.6,6.8c-9,0-17.7-7.4-28.5-7.4c-10.8,0-34.9,20.4-47.7,20.4s-26.1-12.8-37.3-12.8s-25,19-44.6,19
	c-19.6,0-36.5-9.3-58.8-9.3c-23,0-50.4,18.7-61.2,18.7"/>
</svg>
