<?xml version="1.0" encoding="utf-8"?>
<!-- Generator: Adobe Illustrator 19.2.0, SVG Export Plug-In . SVG Version: 6.00 Build 0)  -->
<svg version="1.1" id="Layer_1" xmlns="http://www.w3.org/2000/svg" xmlns:xlink="http://www.w3.org/1999/xlink" x="0px" y="0px"
	 viewBox="0 0 135 130" style="enable-background:new 0 0 135 130;" xml:space="preserve">
<style type="text/css">
	.st0{fill:none;}
	.st1{fill:#EF5195;}
	.st2{fill:#FAC3C7;}
</style>
<g>
	<rect x="-57" class="st0" width="250" height="130"/>
</g>
<g>
	<path class="st1" d="M68.4,109.6c-8.4-7-16.8-13.6-24.7-20.8c-6.4-5.8-9.9-13.3-8.1-22.2c1.5-7.6,6-12.9,13.7-15
		c7.2-2,13.2,0.4,18,5.9c0.4,0.5,0.8,1.1,1.1,1.6c0.5-0.6,1.2-1.3,1.5-1.6c7.3-7.7,14.8-8.7,22.7-4.2c7.9,4.6,11.5,14.1,8.7,23.4
		c-2.1,6.9-6.6,12-11.9,16.4C82.7,98.6,75.7,103.8,68.4,109.6z"/>
	<g>
		<path class="st2" d="M31.2,27.6c-1,0.7-1.3,2.1-0.6,3.1l7.5,11.5c0.7,1.1,2.1,1.4,3.1,0.7s1.3-2.1,0.6-3.1l-7.5-11.5
			C33.6,27.3,32.2,27,31.2,27.6z"/>
		<path class="st2" d="M68.4,20.4c-1.2,0-2.2,0.9-2.2,2.2v13.6c0,1.3,1,2.3,2.2,2.3s2.2-0.9,2.2-2.2V22.7
			C70.6,21.5,69.6,20.5,68.4,20.4z"/>
	</g>
	<g>
		<path class="st2" d="M8.6,54.5c0.4-1.2,1.6-1.8,2.8-1.3l12.8,4.5c1.2,0.4,1.8,1.7,1.5,2.9c-0.4,1.2-1.6,1.8-2.8,1.3l-12.8-4.5
			C8.9,56.9,8.3,55.6,8.6,54.5z"/>
		<path class="st2" d="M9.9,86.6c-0.2-1.2,0.6-2.3,1.9-2.5L25,82.6c1.2-0.1,2.4,0.7,2.6,2c0.2,1.2-0.6,2.3-1.9,2.5l-13.3,1.5
			C11.2,88.7,10,87.8,9.9,86.6z"/>
	</g>
	<path class="st2" d="M104.2,29.1c1,0.6,1.3,2,0.7,3.1l-7.2,11.7c-0.7,1.1-2,1.4-3.1,0.8s-1.3-2-0.7-3.1l7.2-11.7
		C101.8,28.8,103.2,28.4,104.2,29.1z"/>
	<g>
		<path class="st2" d="M127.1,54.8c-0.4-1.2-1.7-1.7-2.8-1.3l-12.7,4.8c-1.2,0.4-1.8,1.7-1.4,2.9c0.4,1.2,1.7,1.7,2.8,1.3l12.7-4.8
			C126.8,57.2,127.5,55.9,127.1,54.8z"/>
		<path class="st2" d="M127.4,86.6c0.2-1.2-0.6-2.3-1.9-2.5l-13.3-1.5c-1.2-0.1-2.4,0.7-2.6,2c-0.2,1.2,0.6,2.3,1.9,2.5l13.3,1.5
			C126.1,88.7,127.3,87.8,127.4,86.6z"/>
	</g>
</g>
</svg>
