<?xml version="1.0" encoding="utf-8"?>
<!-- Generator: Adobe Illustrator 19.2.0, SVG Export Plug-In . SVG Version: 6.00 Build 0)  -->
<svg version="1.1" id="Layer_1" xmlns="http://www.w3.org/2000/svg" xmlns:xlink="http://www.w3.org/1999/xlink" x="0px" y="0px"
	 viewBox="0 0 220 130" style="enable-background:new 0 0 220 130;" xml:space="preserve">
<style type="text/css">
	.st0{fill:none;}
	.st1{fill:#FFF0B8;}
	.st2{fill:#FFCE07;}
	.st3{fill:#FFDA70;}
</style>
<rect x="-18" class="st0" width="250" height="130"/>
<g>
	<polygon class="st1" points="60.8,11.7 6.2,93.6 64,119.2 120.9,88.1 	"/>
	<g>
		<g>
			<polygon class="st2" points="171.6,42.5 142,88.1 174.2,104.5 			"/>
			<polygon class="st3" points="171.5,42.6 206.4,88.1 174.2,104.5 			"/>
		</g>
		<g>
			<g>
				<path class="st1" d="M171.7,23.1c-0.7,0-1.4,0.6-1.4,1.4V33c0,0.8,0.6,1.4,1.4,1.4s1.4-0.6,1.4-1.4v-8.5
					C173.1,23.7,172.5,23.1,171.7,23.1z"/>
				<path class="st1" d="M191.3,28.8c-0.6-0.4-1.5-0.2-1.9,0.4l-4.4,7.2c-0.4,0.7-0.2,1.5,0.4,2c0.6,0.4,1.5,0.2,1.9-0.4l4.4-7.2
					C192.1,30.1,191.9,29.3,191.3,28.8z"/>
				<path class="st1" d="M204.1,44.3c-0.3-0.7-1.1-1-1.8-0.7l-7.5,3.5c-0.7,0.3-1,1.2-0.7,1.9s1.1,1,1.8,0.7l7.5-3.5
					C204.1,45.8,204.4,45,204.1,44.3z"/>
			</g>
			<g>
				<path class="st1" d="M152.1,28.8c0.6-0.4,1.5-0.2,1.9,0.4l4.4,7.2c0.4,0.7,0.2,1.5-0.4,2c-0.6,0.4-1.5,0.2-1.9-0.4l-4.4-7.2
					C151.3,30.1,151.5,29.3,152.1,28.8z"/>
				<path class="st1" d="M139.2,44.3c0.3-0.7,1.1-1,1.8-0.7l7.5,3.5c0.7,0.3,1,1.2,0.7,1.9s-1.1,1-1.8,0.7l-7.5-3.5
					C139.3,45.8,138.9,45,139.2,44.3z"/>
			</g>
		</g>
	</g>
	<g>
		<polygon class="st3" points="61.7,11 90,48.9 64,60.9 		"/>
		<polygon class="st3" points="93.2,100.8 62.8,63.6 91.2,50.4 		"/>
		<polygon class="st3" points="64,68.6 93.6,104.3 66.2,118.7 		"/>
		<polygon class="st2" points="36.5,101.5 60.1,63.4 33.9,53.3 		"/>
		<polygon class="st2" points="61.6,65.4 36.3,107 64,119.2 		"/>
		<polygon class="st2" points="31.9,55.3 6.2,93.6 33.8,105.9 		"/>
		<polygon class="st2" points="60,11.9 47.9,30.4 60.5,34 		"/>
		<polygon class="st2" points="48.2,54.8 60.1,35.3 47.7,31.9 		"/>
		<polygon class="st2" points="61,37.1 49.4,56.9 61.6,60.8 		"/>
		<polygon class="st2" points="46.1,33.8 34.3,51 47.3,56.4 		"/>
		<polygon class="st3" points="92.8,53.4 106.4,70.8 94.1,75.5 		"/>
		<polygon class="st3" points="108,95.3 94.6,76.8 106.7,72.5 		"/>
		<polygon class="st3" points="94.5,78.7 106.7,97.1 95.7,102.3 		"/>
		<polygon class="st3" points="109.1,73.4 120.9,88.1 109.5,95.3 		"/>
	</g>
</g>
</svg>
