<?xml version="1.0" encoding="utf-8"?>
<!-- Generator: Adobe Illustrator 19.2.0, SVG Export Plug-In . SVG Version: 6.00 Build 0)  -->
<svg version="1.1" id="Layer_1" xmlns="http://www.w3.org/2000/svg" xmlns:xlink="http://www.w3.org/1999/xlink" x="0px" y="0px"
	 viewBox="0 0 130 130" style="enable-background:new 0 0 130 130;" xml:space="preserve">
<style type="text/css">
	.st0{fill:none;}
	.st1{fill:#5BC1A4;}
	.st2{fill:#D2E7C0;}
</style>
<g>
	<rect x="-60" class="st0" width="250" height="130"/>
	<g>
		<g>
			<g>
				<rect x="22.5" y="50" class="st1" width="85" height="59.1"/>
				<polygon class="st1" points="65,89.5 22.5,50 65,15.5 107.5,50 				"/>
			</g>
			<rect x="87.3" y="27" class="st1" width="12.2" height="23.9"/>
		</g>
		<g>
			<g>
				<rect x="12.1" y="82.2" class="st2" width="11.7" height="32.7"/>
				<polygon class="st2" points="18,87.6 12.1,82.2 18,76.8 23.8,82.2 				"/>
			</g>
			<g>
				<rect x="30.9" y="82.2" class="st2" width="11.7" height="32.7"/>
				<polygon class="st2" points="36.8,87.6 30.9,82.2 36.8,76.8 42.6,82.2 				"/>
			</g>
			<g>
				<rect x="49.7" y="82.2" class="st2" width="11.7" height="32.7"/>
				<polygon class="st2" points="55.6,87.6 49.7,82.2 55.6,76.8 61.4,82.2 				"/>
			</g>
			<g>
				<rect x="68.5" y="82.2" class="st2" width="11.7" height="32.7"/>
				<polygon class="st2" points="74.4,87.6 68.5,82.2 74.4,76.8 80.2,82.2 				"/>
			</g>
			<g>
				<rect x="87.3" y="82.2" class="st2" width="11.7" height="32.7"/>
				<polygon class="st2" points="93.2,87.6 87.3,82.2 93.2,76.8 99,82.2 				"/>
			</g>
			<g>
				<rect x="106.2" y="82.2" class="st2" width="11.7" height="32.7"/>
				<polygon class="st2" points="112,87.6 106.2,82.2 112,76.8 117.9,82.2 				"/>
			</g>
		</g>
	</g>
</g>
</svg>
